<svg id="color" enable-background="new 0 0 24 24" height="512" viewBox="0 0 24 24" width="512" xmlns="http://www.w3.org/2000/svg"><path d="m21.25 0h-18.5c-1.517 0-2.75 1.233-2.75 2.75v18.5c0 1.517 1.233 2.75 2.75 2.75h18.5c1.517 0 2.75-1.233 2.75-2.75v-18.5c0-1.517-1.233-2.75-2.75-2.75z" fill="#607d8b"/><path d="m12 0h-9.25c-1.517 0-2.75 1.233-2.75 2.75v18.5c0 1.517 1.233 2.75 2.75 2.75h9.25z" fill="#546d79"/><path d="m10.707 12.707-5 5c-.195.195-.451.293-.707.293s-.512-.098-.707-.293c-.391-.391-.391-1.023 0-1.414l4.293-4.293-4.293-4.293c-.391-.391-.391-1.023 0-1.414s1.023-.391 1.414 0l5 5c.391.391.391 1.023 0 1.414z" fill="#fff"/><path d="m11 12h-2.414l-4.293 4.293c-.391.391-.391 1.023 0 1.414.195.195.451.293.707.293s.512-.098.707-.293l5-5c.195-.195.293-.451.293-.707z" fill="#dedede"/><path d="m19 18h-6c-.553 0-1-.448-1-1s.447-1 1-1h6c.553 0 1 .448 1 1s-.447 1-1 1z" fill="#fff"/><path d="m20 17h-8c0 .552.447 1 1 1h6c.553 0 1-.448 1-1z" fill="#dedede"/></svg>