<svg width="33" height="33" viewBox="0 0 33 33" fill="none" xmlns="http://www.w3.org/2000/svg">
<g clip-path="url(#clip0)">
<path d="M16.2574 0.682739C7.2752 0.682739 -7.62939e-06 7.89271 -7.62939e-06 16.785C-7.62939e-06 23.9008 4.65775 29.935 11.116 32.0625C11.9289 32.2141 12.2269 31.7157 12.2269 31.2882C12.2269 30.9059 12.2134 29.8927 12.2066 28.5504C7.68435 29.5213 6.73058 26.3901 6.73058 26.3901C5.99086 24.5316 4.92194 24.0346 4.92194 24.0346C3.44928 23.0364 5.03574 23.0569 5.03574 23.0569C6.66826 23.1688 7.52584 24.716 7.52584 24.716C8.97546 27.178 11.3314 26.4666 12.2608 26.0556C12.4071 25.0137 12.8258 24.305 13.2905 23.9021C9.67995 23.4993 5.88519 22.1147 5.88519 15.9452C5.88519 14.1878 6.51517 12.7512 7.55835 11.6247C7.37546 11.2178 6.82677 9.5805 7.7006 7.36289C7.7006 7.36289 9.06217 6.93138 12.1714 9.01381C13.472 8.65604 14.8539 8.47852 16.2358 8.47033C17.6176 8.47852 18.9995 8.65604 20.3001 9.01381C23.389 6.93138 24.7506 7.36289 24.7506 7.36289C25.6244 9.5805 25.0758 11.2178 24.9132 11.6247C25.9496 12.7512 26.5796 14.1878 26.5796 15.9452C26.5796 22.131 22.7794 23.4925 19.1621 23.8885C19.7311 24.3719 20.2595 25.3591 20.2595 26.868C20.2595 29.0228 20.2392 30.7543 20.2392 31.2773C20.2392 31.6993 20.5237 32.2031 21.3569 32.042C27.8612 29.9282 32.5149 23.8898 32.5149 16.785C32.5149 7.89271 25.2356 0.682739 16.2574 0.682739Z" fill="white"/>
</g>
<defs>
<clipPath id="clip0">
<rect width="32.5149" height="32.7726" fill="white"/>
</clipPath>
</defs>
</svg>
