<svg id="Capa_1" enable-background="new 0 0 510.719 510.719" height="512" viewBox="0 0 510.719 510.719" width="512" xmlns="http://www.w3.org/2000/svg"><g id="Best_Seller"><path d="m480.32 446.719-71.361 4.16-39.359 59.84-83.201-137.279c1.602-.959 2.881-1.92 4.48-3.199 13.441 3.84 26.24 3.84 38.08-.961 11.52-4.799 20.48-14.08 27.201-26.24 14.08-1.6 26.238-6.4 34.879-15.359 3.84-3.84 7.041-8 9.281-13.121z" fill="#ffce33"/><path d="m224.32 373.439-83.201 137.279-39.359-59.84-71.361-4.16 80-132.16c2.24 5.121 5.441 9.281 9.281 13.121 8.641 8.959 20.799 13.76 34.879 15.359 6.721 12.16 15.682 21.441 27.201 26.24 11.84 4.801 24.639 4.801 38.08.961 1.599 1.281 2.879 2.241 4.48 3.2z" fill="#ffce33"/><path d="m433.6 227.52c3.84 13.439 3.84 26.24-.961 38.08-4.799 11.52-14.08 20.48-26.24 27.199-.959 8-2.879 15.361-6.078 21.76-2.24 5.121-5.441 9.281-9.281 13.121-8.641 8.959-20.799 13.76-34.879 15.359-6.721 12.16-15.682 21.441-27.201 26.24-11.84 4.801-24.639 4.801-38.08.961-1.6 1.279-2.879 2.24-4.48 3.199-9.601 7.041-20.16 10.561-31.041 10.561s-21.439-3.52-31.039-10.561c-1.602-.959-2.881-1.92-4.48-3.199-13.441 3.84-26.24 3.84-38.08-.961-11.52-4.799-20.48-14.08-27.201-26.24-14.08-1.6-26.238-6.4-34.879-15.359-3.84-3.84-7.041-8-9.281-13.121-3.199-6.398-5.119-13.76-6.078-21.76-12.16-6.719-21.441-15.68-26.24-27.199-4.801-11.84-4.801-24.641-.961-38.08-8.959-10.881-13.76-23.039-13.76-35.52s4.801-24.641 13.76-35.52c-3.84-13.441-3.84-26.24.961-38.08 4.799-11.521 14.08-20.48 26.24-27.201 1.6-14.08 6.398-26.24 15.359-34.879 8.641-8.961 20.799-13.762 34.879-15.361 6.721-12.16 15.682-21.439 27.201-26.24 11.84-4.799 24.639-4.799 38.08-.959 10.879-8.961 23.039-13.76 35.519-13.76s24.641 4.799 35.52 13.76c13.441-3.84 26.24-3.84 38.08.959 11.52 4.801 20.48 14.08 27.201 26.24 14.08 1.6 26.238 6.4 34.879 15.361 8.961 8.639 13.76 20.799 15.359 34.879 12.16 6.721 21.441 15.68 26.24 27.201 4.801 11.84 4.801 24.639.961 38.08 8.959 10.879 13.76 23.039 13.76 35.52s-4.8 24.639-13.759 35.52z" fill="#fffa50"/><circle cx="255.359" cy="192" fill="#ffce33" r="128"/><path d="m286.029 201.965 30.198-29.742-41.913-6.313-18.955-37.91-18.955 37.91-41.912 6.313 30.197 29.742-6.949 41.812 37.619-19.529 37.62 19.529z" fill="#fffa50"/><g fill="#ffa65c"><path d="m400.32 314.559c-2.24 5.121-5.441 9.281-9.281 13.121-8.641 8.959-20.799 13.76-34.879 15.359-6.721 12.16-15.682 21.441-27.201 26.24-11.84 4.801-24.639 4.801-38.08.961-1.6 1.279-2.879 2.24-4.48 3.199l-6.399-10.88 110.719-64z"/><path d="m230.719 362.559-6.398 10.881c-1.602-.959-2.881-1.92-4.48-3.199-13.441 3.84-26.24 3.84-38.08-.961-11.52-4.799-20.48-14.08-27.201-26.24-14.08-1.6-26.238-6.4-34.879-15.359-3.84-3.84-7.041-8-9.281-13.121l9.602-16z"/></g></g></svg>